HIERARCHY
ROOT Hips
{
	OFFSET -0.001795 -0.223333 0.028219
	CHANNELS 6 Xposition Yposition Zposition Zrotation Yrotation Xrotation 
	JOINT LeftUpLeg
	{
		OFFSET 0.069520 -0.091406 -0.006815
		CHANNELS 3 Zrotation Yrotation Xrotation
		JOINT LeftLeg
		{
			OFFSET 0.034277 -0.375199 -0.004496
			CHANNELS 3 Zrotation Yrotation Xrotation
			JOINT LeftFoot
			{
				OFFSET -0.013596 -0.397961 -0.043693
				CHANNELS 3 Zrotation Yrotation Xrotation
				JOINT LeftToe
				{
					OFFSET 0.026358 -0.055791 0.119288
					CHANNELS 3 Zrotation Yrotation Xrotation
					End Site
					{
						OFFSET 0.000000 0.000000 0.000000
					}
				}
			}
		}
	}
	JOINT RightUpLeg
	{
		OFFSET -0.067670 -0.090522 -0.004320
		CHANNELS 3 Zrotation Yrotation Xrotation
		JOINT RightLeg
		{
			OFFSET -0.038290 -0.382569 -0.008850
			CHANNELS 3 Zrotation Yrotation Xrotation
			JOINT RightFoot
			{
				OFFSET 0.015774 -0.398415 -0.042312
				CHANNELS 3 Zrotation Yrotation Xrotation
				JOINT RightToe
				{
					OFFSET -0.025372 -0.048144 0.123348
					CHANNELS 3 Zrotation Yrotation Xrotation
					End Site
					{
						OFFSET 0.000000 0.000000 0.000000
					}
				}
			}
		}
	}
	JOINT Spine
	{
		OFFSET -0.002533 0.108963 -0.026696
		CHANNELS 3 Zrotation Yrotation Xrotation
		JOINT Spine1
		{
			OFFSET 0.005487 0.135180 0.001092
			CHANNELS 3 Zrotation Yrotation Xrotation
			JOINT Spine2
			{
				OFFSET 0.001457 0.052922 0.025425
				CHANNELS 3 Zrotation Yrotation Xrotation
				JOINT Neck
				{
					OFFSET -0.002778 0.213870 -0.042857
					CHANNELS 3 Zrotation Yrotation Xrotation
					JOINT Head
					{
						OFFSET 0.005152 0.064970 0.051349
						CHANNELS 3 Zrotation Yrotation Xrotation
						End Site
						{
							OFFSET 0.000000 0.000000 0.000000
						}
					}
				}
				JOINT LeftShoulder
				{
					OFFSET 0.078845 0.121749 -0.034090
					CHANNELS 3 Zrotation Yrotation Xrotation
					JOINT LeftArm
					{
						OFFSET 0.090977 0.030469 -0.008868
						CHANNELS 3 Zrotation Yrotation Xrotation
						JOINT LeftForeArm
						{
							OFFSET 0.259612 -0.012772 -0.027456
							CHANNELS 3 Zrotation Yrotation Xrotation
							JOINT LeftHand
							{
								OFFSET 0.249234 0.008986 -0.001171
								CHANNELS 3 Zrotation Yrotation Xrotation
								End Site
								{
									OFFSET 0.000000 0.000000 0.000000
								}
							}
						}
					}
				}
				JOINT RightShoulder
				{
					OFFSET -0.081759 0.118833 -0.038615
					CHANNELS 3 Zrotation Yrotation Xrotation
					JOINT RightArm
					{
						OFFSET -0.096012 0.032551 -0.009143
						CHANNELS 3 Zrotation Yrotation Xrotation
						JOINT RightForeArm
						{
							OFFSET -0.253742 -0.013329 -0.021401
							CHANNELS 3 Zrotation Yrotation Xrotation
							JOINT RightHand
							{
								OFFSET -0.255298 0.007772 -0.005559
								CHANNELS 3 Zrotation Yrotation Xrotation
								End Site
								{
									OFFSET 0.000000 0.000000 0.000000
								}
							}
						}
					}
				}
			}
		}
	}
}
MOTION
Frames: 10
Frame Time: 0.050000
0.000000 0.955458 0.000000 -1.141476 -2.985264 3.687209 4.331834 0.093605 2.801530 -0.380516 0.219750 -5.647551 3.451643 9.884449 11.851170 0.000000 0.000000 0.000000 -2.360069 0.136053 -0.608127 2.026230 -0.269686 -3.318832 -0.189375 -5.171170 10.387396 0.000000 0.000000 0.000000 6.712076 0.062643 -1.865697 -5.798671 1.956839 -23.563463 -1.304753 5.937183 29.141243 8.485547 -3.759668 -19.704789 0.000000 0.000000 0.000000 -5.462723 1.135027 -0.959867 -58.335132 -0.871137 -9.341887 -5.043867 -30.823207 2.871541 0.000000 0.000000 0.000000 12.861494 -11.456591 -5.707381 64.780449 -0.111523 -8.642750 9.300584 27.755655 3.943662 0.000000 0.000000 0.000000 
-0.000050 0.954437 -0.000123 -1.338972 -3.539502 4.152435 4.934859 0.086059 3.050113 -1.156186 0.297630 -6.605733 4.238167 10.998191 11.139706 0.000000 0.000000 0.000000 -2.503064 0.219235 -1.565274 2.524105 -0.288954 -2.679691 -0.148331 -5.100321 10.237498 0.000000 0.000000 0.000000 7.193995 0.082002 -2.120612 -6.139578 2.025107 -23.603356 -1.501562 6.480733 28.875641 8.678100 -3.904741 -19.336362 0.000000 0.000000 0.000000 -5.025100 1.930799 -1.248324 -58.594323 -0.775360 -9.425888 -4.063705 -31.064375 2.622538 0.000000 0.000000 0.000000 13.028477 -12.088394 -6.039581 65.144362 -1.278205 -9.248022 9.092385 28.940221 4.113389 0.000000 0.000000 0.000000 
-0.000158 0.953703 -0.000355 -1.030382 -3.344384 3.987859 4.979725 0.061096 2.606323 -1.603369 0.298800 -5.559365 4.103162 10.833589 11.390729 0.000000 0.000000 0.000000 -2.681664 0.195652 -1.210197 2.232397 -0.276715 -3.081290 -0.089401 -4.784007 9.766793 0.000000 0.000000 0.000000 7.188533 0.114841 -2.401280 -6.200684 2.037724 -23.889857 -1.724902 5.913680 29.886553 8.471295 -3.817860 -19.621513 0.000000 0.000000 0.000000 -5.254725 1.943417 -1.237115 -58.907034 -0.181405 -9.815473 -3.124987 -31.547339 2.476707 0.000000 0.000000 0.000000 12.940122 -11.748560 -5.900193 64.845686 -0.623416 -9.024205 8.550218 28.054191 3.813594 0.000000 0.000000 0.000000 
-0.000347 0.954160 -0.000493 -1.055513 -3.587050 4.108031 5.111524 0.061549 2.668163 -1.564812 0.298328 -5.610463 4.220656 11.057671 11.754045 0.000000 0.000000 0.000000 -2.858907 0.204616 -1.232888 2.922208 -0.321941 -3.059756 -0.234923 -5.125371 9.837611 0.000000 0.000000 0.000000 7.401958 0.142688 -2.659980 -6.422228 2.088244 -23.983472 -1.809532 6.016579 30.269730 8.143992 -3.752226 -18.753057 0.000000 0.000000 0.000000 -4.544670 2.371891 -1.328131 -60.099665 0.094514 -10.169625 -2.304448 -31.943334 2.318254 0.000000 0.000000 0.000000 12.496800 -12.207173 -6.079273 65.132919 -0.579219 -9.036328 9.152797 27.500451 3.869321 0.000000 0.000000 0.000000 
-0.000574 0.954356 -0.000646 -0.972166 -3.315613 3.957194 5.146800 0.056651 2.632354 -1.804167 0.313975 -5.646167 4.174451 11.061520 12.093162 0.000000 0.000000 0.000000 -2.804708 0.190401 -1.093065 2.602474 -0.299628 -2.903581 -0.504004 -5.464156 9.384975 0.000000 0.000000 0.000000 7.099699 0.123341 -2.478367 -5.808002 1.954468 -23.484548 -2.141730 5.825170 29.730192 7.771729 -3.573769 -18.159429 0.000000 0.000000 0.000000 -4.619626 2.329181 -1.322887 -60.348918 0.236331 -10.227254 -1.622918 -31.823499 2.106293 0.000000 0.000000 0.000000 12.111153 -11.918034 -5.886054 65.095551 -0.515022 -8.922706 8.356956 27.313559 3.632895 0.000000 0.000000 0.000000 
-0.000746 0.954656 -0.000782 -1.082032 -3.078972 3.937131 5.336981 0.045505 2.604927 -1.819621 0.312870 -5.599723 4.279726 11.280774 12.275877 0.000000 0.000000 0.000000 -2.794232 0.184184 -1.031057 2.694247 -0.305829 -2.775686 -0.584560 -5.607151 9.407851 0.000000 0.000000 0.000000 7.171017 0.121037 -2.459742 -5.945258 1.991276 -23.498799 -1.964225 5.476530 30.100325 7.416233 -3.309016 -18.532623 0.000000 0.000000 0.000000 -4.632610 2.481003 -1.370195 -60.370991 -0.010695 -10.120998 -1.152332 -31.060449 1.944638 0.000000 0.000000 0.000000 11.802676 -11.896164 -5.855592 65.126976 -0.398932 -8.902538 8.014967 26.760317 3.452948 0.000000 0.000000 0.000000 
-0.000820 0.954674 -0.000931 -1.098959 -2.944663 3.839887 5.480885 0.049305 2.808812 -1.890439 0.322540 -5.881069 4.283716 11.371299 12.739531 0.000000 0.000000 0.000000 -2.770006 0.177405 -0.966917 2.678570 -0.303044 -2.600300 -0.618678 -5.652687 9.385120 0.000000 0.000000 0.000000 7.154061 0.107424 -2.318236 -5.787683 1.959559 -23.318067 -2.145548 5.306641 30.013612 7.667557 -3.447389 -18.824403 0.000000 0.000000 0.000000 -4.816289 2.275808 -1.301810 -60.555882 0.240531 -10.264063 -0.798533 -30.746631 1.833244 0.000000 0.000000 0.000000 11.779160 -11.532150 -5.681257 65.161975 -0.361280 -8.891674 7.571335 26.793284 3.348202 0.000000 0.000000 0.000000 
-0.000781 0.954671 -0.001209 -1.177560 -2.880425 3.722448 5.505822 0.049202 2.813216 -1.681148 0.307163 -5.795315 4.406632 11.573584 12.742079 0.000000 0.000000 0.000000 -2.734176 0.180757 -1.041620 2.792648 -0.307250 -2.254474 -0.696657 -5.703067 9.104894 0.000000 0.000000 0.000000 7.337279 0.085014 -2.079537 -5.820536 1.969611 -23.298371 -2.165758 5.286325 30.106372 7.780619 -3.475369 -19.131575 0.000000 0.000000 0.000000 -4.958774 1.813245 -1.130509 -60.413662 0.426458 -10.346296 -1.070228 -30.621769 1.889414 0.000000 0.000000 0.000000 11.777201 -11.501043 -5.660159 65.279818 -0.306042 -8.883914 7.290655 26.644822 3.267040 0.000000 0.000000 0.000000 
-0.000633 0.954756 -0.001540 -1.210281 -2.928323 3.797239 5.532953 0.048820 2.831495 -1.676660 0.311730 -6.009657 4.481051 11.707144 12.887935 0.000000 0.000000 0.000000 -2.871608 0.194061 -1.156265 2.854014 -0.311939 -2.287780 -0.570246 -5.499698 9.234312 0.000000 0.000000 0.000000 7.410783 0.081703 -2.060887 -5.821924 1.970061 -23.242457 -2.279715 5.235636 30.065914 7.738292 -3.431783 -19.291684 0.000000 0.000000 0.000000 -4.973290 1.739172 -1.096527 -60.949258 0.446993 -10.433753 -0.971557 -30.281919 1.853277 0.000000 0.000000 0.000000 11.844779 -11.299052 -5.579955 65.401371 -0.100857 -8.793869 7.085449 26.616797 3.211061 0.000000 0.000000 0.000000 
-0.000507 0.954924 -0.001830 -1.227453 -2.924515 3.825138 5.517202 0.050369 2.859786 -1.629249 0.314273 -6.255949 4.555275 11.837910 12.983186 0.000000 0.000000 0.000000 -2.943364 0.206485 -1.295617 2.760772 -0.304524 -2.269246 -0.565551 -5.493807 9.243580 0.000000 0.000000 0.000000 7.513385 0.087725 -2.119102 -5.902389 1.989923 -23.251714 -2.276213 5.243148 30.242976 7.746109 -3.405803 -19.514794 0.000000 0.000000 0.000000 -4.985388 1.544862 -1.018114 -61.109822 0.582273 -10.546458 -1.014028 -30.246797 1.865964 0.000000 0.000000 0.000000 11.707266 -11.168158 -5.493605 65.590094 0.016119 -8.760139 7.140641 26.775064 3.251251 0.000000 0.000000 0.000000 
